<svg xmlns="http://www.w3.org/2000/svg" width="161" height="42"><path d="M124.12 33.2H161V0h-36.88v33.2z" fill="#e50033"/><path d="M4.26 22.65V42H0V22.64zm8.5.02L12.75 42H8.5V22.66zm8.5 0L21.25 42H17L17 22.66zM0 14.22h25.5v4.52H0zM46.96 42h-4.48l.07-19.1H38.3L38.22 42h-4.25l.06-19.1H29.8L29.73 42H25.5l.03-23.26h21.43v-4.52H33.54V.02l90.7-.02v33.2l-77.28-.24zM20.4 8.97c0-1.72 1.34-3.1 3-3.1 1.64 0 3 1.38 3 3.1 0 1.72-1.36 3.1-3 3.1-1.66 0-3-1.38-3-3.1" fill="#2d509a" fill-rule="evenodd"/><path d="M121.26 22.46c0-1.7 1.32-3.08 2.95-3.08 1.65 0 2.97 1.38 2.97 3.08 0 1.7-1.32 3.07-2.96 3.07-1.62 0-2.94-1.38-2.94-3.07" fill="#fff"/><path d="M67 19.76c0 2.12-1.26 5.35-6.57 5.35-1 0-2.7-.06-4.32-.06h-2.18v-1.4c.66-.17 1.44-.3 2.2-.35V9.15c-.76-.05-1.54-.18-2.2-.37V7.4h2.14c1.2 0 3.02-.07 5.05-.07 3.7 0 5.52 1.6 5.52 4.23 0 1.86-1.23 3.5-3.04 4.1v.05c2.36.43 3.42 2.23 3.42 4.06zm-2.8-7.8c0-1.57-.77-2.7-3.5-2.7-.8 0-1.6.03-2.3.06v5.7h1.56c2.8 0 4.24-1.13 4.24-3.07zm.36 7.88c0-2.27-1.96-3-4.58-3-.28 0-1.18 0-1.58.02v6.16c.45.08 1.18.14 2.16.14 2.76 0 4-1.4 4-3.32m14.98-2.56c0 .3-.03.68-.08 1.12H71.3c-.1 3.48 1.27 4.96 3.94 4.96 1.28 0 2.64-.3 3.64-.8l.2 1.9c-1.2.52-2.66.8-4.22.8-3.85 0-5.9-2.08-5.9-6.65 0-3.88 2.03-6.78 5.57-6.78 3.52 0 5 2.48 5 5.46zm-2.32-.55c.05-1.9-1.03-3.18-2.8-3.18-1.62 0-2.78 1.28-3.03 3.18h5.82m65.46 8.12c-1.18.16-2.9.26-4.3.2 0-.75.06-1.9.2-2.65l-.04-.03c-.7 1.75-2.24 2.9-4.2 2.9-3.07 0-4.6-2.32-4.6-6.1 0-4.55 2.5-7.3 6.46-7.3.68 0 1.36.06 2.1.14V7.8c-.6-.1-1.45-.2-2.18-.26V6.16c1.26-.16 3-.26 4.45-.2v17.25c.6.1 1.44.22 2.1.27v1.38zm-4.37-6.53v-4.3c-.74-.2-1.5-.3-2.2-.3-2.4 0-3.97 1.5-3.97 5.23 0 2.8.87 4.4 2.76 4.4 2.25 0 3.4-2.75 3.4-5.03m15.77-1.04c0-2.98-1.48-5.46-5-5.46-3.54 0-5.58 2.9-5.58 6.8 0 4.56 2.05 6.65 5.9 6.65 1.56 0 3-.3 4.22-.8l-.2-1.92c-1 .5-2.36.8-3.64.8-2.67 0-4.05-1.47-3.95-4.95H154c.05-.44.07-.8.07-1.12zm-2.3-.55h-5.84c.25-1.9 1.4-3.18 3.04-3.18 1.76 0 2.84 1.28 2.8 3.18m-62.3-4.9l-.1 2.3c-2.86-.48-4.15 1.53-4.15 5.68l.13 5.22-2.43.05V13.85c-.6-.1-1.42-.17-2.15-.23v-1.38c1.26-.16 3-.26 4.38-.18 0 .8-.08 2-.25 3.08h.02c.56-1.8 1.8-3.6 4.55-3.32" fill="#fff" fill-rule="evenodd"/><path d="M94.15 23.3c.76.04 1.5.17 2.14.35v1.4h-6.57v-1.4c.65-.18 1.43-.3 2.18-.36V7.8c-.6-.1-1.44-.2-2.17-.26V6.16c1.25-.16 3-.26 4.42-.2V23.3m10.6 1.74h-6.58v-1.4c.66-.17 1.44-.3 2.2-.35v-9.4c-.6-.12-1.47-.22-2.2-.28l-.07-1.66c1.24-.03 3.14.04 4.54.02l-.02 11.3c.73.06 1.5.2 2.1.37v1.4M103 8.37c0 .83-.68 1.54-1.48 1.54-.83 0-1.5-.68-1.5-1.54 0-.84.67-1.52 1.5-1.52.8 0 1.48.66 1.48 1.52m13.5 16.66v-8.4c0-1.8-.46-2.9-2.1-2.9-2.08 0-3.57 2.18-3.57 5.05l.1 6.27h-2.6l.24-11.18c-.6-.12-1.46-.22-2.2-.28v-1.38c1.27-.16 3-.26 4.4-.18 0 .75-.06 1.96-.2 2.7l.04.04c.74-1.8 2.27-3 4.43-3 2.84 0 3.75 1.85 3.75 4.15l.04 9.12-2.3-.04" fill="#fff"/></svg>